<?xml version="1.0" encoding="UTF-8"?>
<svg version="1.1" xmlns="http://www.w3.org/2000/svg" width="300" height="300">
<path d="M0 0 C99 0 198 0 300 0 C300 99 300 198 300 300 C201 300 102 300 0 300 C0 201 0 102 0 0 Z " fill="#FDFDFD" transform="translate(0,0)"/>
<path d="M0 0 C13.2 0 26.4 0 40 0 C35 5 35 5 32 6 C32.38220703 6.57331055 32.76441406 7.14662109 33.15820312 7.73730469 C40.10546875 18.15820312 47.05273438 28.57910156 54 39 C57.84190341 37.71936553 58.3485734 36.32417365 60.5 32.9375 C61.19351563 31.86371094 61.88703125 30.78992188 62.6015625 29.68359375 C63.17052246 28.8016333 63.17052246 28.8016333 63.75097656 27.90185547 C66.51911574 23.68688201 69.43118434 19.56730372 72.31835938 15.43334961 C72.76759766 14.78503174 73.21683594 14.13671387 73.6796875 13.46875 C74.27885986 12.60926758 74.27885986 12.60926758 74.89013672 11.73242188 C76.0765168 9.88056242 77.04974526 7.98191338 78 6 C77.13375 5.731875 76.2675 5.46375 75.375 5.1875 C72.08208036 4.02888013 69.08872125 2.61790161 66 1 C66 0.67 66 0.34 66 0 C78.54 0 91.08 0 104 0 C99 5 99 5 97 6 C96.81443881 15.54451461 96.67239454 25.08840626 96.58550262 34.63433266 C96.54379264 39.06725505 96.48724637 43.4989414 96.39648438 47.93115234 C96.30940058 52.21064721 96.26169433 56.48895538 96.24098206 60.76926804 C96.22622753 62.40007588 96.19741251 64.03082045 96.15415955 65.66112137 C95.58861072 74.50656462 95.58861072 74.50656462 98.83422852 82.33416748 C100.83368123 83.82538096 102.75577394 84.93104639 105 86 C105 86.33 105 86.66 105 87 C94.77 87 84.54 87 74 87 C78 83 78 83 80.22161865 81.60978699 C82.25407772 80.09731494 82.25407772 80.09731494 82.48101807 77.39936829 C82.47213562 76.35790146 82.46325317 75.31643463 82.45410156 74.2434082 C82.45364838 72.47191154 82.45364838 72.47191154 82.45318604 70.66462708 C82.43254089 69.38955795 82.41189575 68.11448883 82.390625 66.80078125 C82.38213531 64.84279854 82.38213531 64.84279854 82.37347412 62.84526062 C82.35821392 59.37781054 82.31893032 55.91103251 82.2746582 52.44384766 C82.23371291 48.90471488 82.21546479 45.36547332 82.1953125 41.82617188 C82.15243532 34.88383881 82.08418015 27.94195168 82 21 C81.36078613 22.05058594 80.72157227 23.10117188 80.06298828 24.18359375 C72.22894048 36.95089468 72.22894048 36.95089468 68.1796875 41.875 C61.13637565 50.52681199 57.79221326 57.48973471 57.6875 68.8125 C57.66115479 70.34293945 57.66115479 70.34293945 57.63427734 71.90429688 C57.81507648 76.05782808 57.95466427 78.88764509 60.87353516 81.99365234 C62.857964 83.47001826 64.87902522 84.73422268 67 86 C67 86.33 67 86.66 67 87 C57.1 87 47.2 87 37 87 C42 82 42 82 45 80 C46.59517266 73.47645808 46.76239757 66.6435685 43.79003906 60.49853516 C40.5469199 55.18531794 36.73637255 50.30413565 32.88183594 45.42480469 C30.02811949 41.74770145 27.4213243 37.91520741 24.8125 34.0625 C24.14577271 33.09654907 24.14577271 33.09654907 23.46557617 32.11108398 C21.18060874 28.79599739 19.0750375 25.45839583 17 22 C16.67 41.14 16.34 60.28 16 80 C17.98 80.66 19.96 81.32 22 82 C23.47390492 82.67533436 24.93497149 83.38015767 26.375 84.125 C27.06335938 84.47820312 27.75171875 84.83140625 28.4609375 85.1953125 C28.96882813 85.46085937 29.47671875 85.72640625 30 86 C30 86.33 30 86.66 30 87 C19.77 87 9.54 87 -1 87 C4 82 4 82 7 80 C7.48016492 76.80664043 7.48016492 76.80664043 7.43237305 72.97998047 C7.4425647 72.25792419 7.45275635 71.53586792 7.46325684 70.79193115 C7.49350189 68.4002722 7.50266994 66.00901294 7.51171875 63.6171875 C7.52855698 61.96093401 7.54670605 60.30469336 7.56611633 58.64846802 C7.61371578 54.28538019 7.64346055 49.92234441 7.66955566 45.55908203 C7.69931125 41.10829379 7.74585863 36.65768516 7.79101562 32.20703125 C7.87716176 23.47144219 7.94445642 14.73583696 8 6 C7.4225 5.7525 6.845 5.505 6.25 5.25 C4 4 4 4 0 0 Z " fill="#060606" transform="translate(98,106)"/>
</svg>
